<?xml version="1.0" encoding="UTF-8" standalone="no"?>
<svg
   version="1.0"
   width="24pt"
   height="24pt"
   viewBox="0 0 24 24"
   preserveAspectRatio="xMidYMid"
   id="svg1"
   sodipodi:docname="logo-light.svg"
   inkscape:version="1.3.2 (091e20e, 2023-11-25, custom)"
   xmlns:inkscape="http://www.inkscape.org/namespaces/inkscape"
   xmlns:sodipodi="http://sodipodi.sourceforge.net/DTD/sodipodi-0.dtd"
   xmlns="http://www.w3.org/2000/svg"
   xmlns:svg="http://www.w3.org/2000/svg">
  <defs
     id="defs1" />
  <sodipodi:namedview
     id="namedview1"
     pagecolor="#ffffff"
     bordercolor="#000000"
     borderopacity="0.25"
     inkscape:showpageshadow="2"
     inkscape:pageopacity="0.0"
     inkscape:pagecheckerboard="0"
     inkscape:deskcolor="#d1d1d1"
     inkscape:document-units="pt"
     inkscape:zoom="11.117187"
     inkscape:cx="-4.9023193"
     inkscape:cy="47.134226"
     inkscape:window-width="2101"
     inkscape:window-height="1360"
     inkscape:window-x="1323"
     inkscape:window-y="1440"
     inkscape:window-maximized="0"
     inkscape:current-layer="g1" />
  <g
     transform="matrix(0.00727058,0,0,-0.00709339,-19.317931,53.207518)"
     fill="#000000"
     stroke="none"
     id="g1">
    <path
       d="m 4077.0002,7422.3333 c -2,-43.3334 -3.3333,-612.6671 -3.9999,-1265.334 -0.6668,-766.6673 -3.3333,-1202.0007 -8.0001,-1230.0008 -8.6666,-59.3334 -22.6667,-100.6668 -54,-160.6668 -104,-202.6668 -334.6667,-323.3335 -543.3333,-284.0001 -110.0001,20.6666 -186.0002,62 -272.6669,148.0001 -54,53.3334 -64.6666,68.6667 -94.6666,130 -45.3333,94.6668 -55.3334,143.3334 -59.3333,295.3335 l -4,124.6668 H 2847 2657 l 4,-141.3334 c 2.6667,-108.0002 7.3334,-158.0001 18,-208.6668 38,-178.6668 113.3334,-317.3336 243.3333,-446.667 130.6668,-130.0001 254.0001,-201.3335 430.0002,-248.6667 56,-14.6667 76.6667,-16.6667 180,-17.3334 90.6666,-0.6666 129.3333,1.9999 173.3333,12 178,38.6667 320.0001,109.3333 436.0002,217.3335 163.3333,151.3333 240,276.6667 289.3333,473.3335 l 18,70.0001 0.6666,896.6671 c 0,493.3337 0.6668,998.0007 1.3334,1122.0008 l 1.3333,225.3334 325.3334,-2.6667 c 282.6667,-1.9999 330.0001,-4 364.6668,-13.9999 145.3333,-42 210.6666,-78.6668 300,-167.3334 74.0001,-73.3335 110.6667,-131.3336 139.3333,-216.6669 54,-162 27.3333,-350.6669 -68.6667,-492.0003 -84.6666,-124.6667 -202,-210 -343.9999,-248.6667 -48,-13.3334 -73.3334,-15.3335 -248.0001,-18 l -195.3333,-2.6667 v -182.0001 -181.3335 l 20.6665,-4.6667 c 32.6667,-6 206.0001,-4.6666 306.0002,2.6667 138.6666,10.6667 296.6667,51.3333 396.6667,102 88.6667,44.6667 251.3333,174.6668 310.6667,249.3335 91.9999,115.3335 154,255.3336 183.3333,415.3336 17.3334,91.3334 20.0001,257.3334 6,340.0002 -35.3333,212.0001 -137.3333,392.6669 -306,541.3337 -130.0001,115.3333 -272.6667,187.3333 -447.3335,227.3334 -56.6665,12.6667 -86.6665,13.3333 -587.3334,16 L 4081.0002,7501 Z"
       id="path1"
       style="stroke-width:0.666667;fill:#ffffff" />
  </g>
</svg>
